<svg xmlns="http://www.w3.org/2000/svg" xmlns:xlink="http://www.w3.org/1999/xlink" width="1080" zoomAndPan="magnify" viewBox="0 0 810 809.999993" height="1080" preserveAspectRatio="xMidYMid meet" version="1.0"><defs><clipPath id="64d8504ce9"><path d="M 35.089844 137.992188 L 774.589844 137.992188 L 774.589844 671.992188 L 35.089844 671.992188 Z M 35.089844 137.992188 " clip-rule="nonzero"/></clipPath><clipPath id="6b92824446"><path d="M 35.089844 137.992188 L 774.589844 137.992188 L 774.589844 405 L 35.089844 405 Z M 35.089844 137.992188 " clip-rule="nonzero"/></clipPath><clipPath id="e26d7c86ac"><path d="M 35.089844 159 L 427 159 L 427 651 L 35.089844 651 Z M 35.089844 159 " clip-rule="nonzero"/></clipPath></defs><g clip-path="url(#64d8504ce9)"><path fill="#ce1126" d="M 774.378906 589.835938 C 774.378906 635.207031 737.609375 671.992188 692.261719 671.992188 L 117.417969 671.992188 C 72.066406 671.992188 35.296875 635.207031 35.296875 589.835938 L 35.296875 220.144531 C 35.296875 174.773438 72.066406 137.992188 117.417969 137.992188 L 692.261719 137.992188 C 737.609375 137.992188 774.378906 174.773438 774.378906 220.144531 Z M 774.378906 589.835938 " fill-opacity="1" fill-rule="nonzero"/></g><g clip-path="url(#6b92824446)"><path fill="#0038a8" d="M 692.261719 137.992188 L 117.417969 137.992188 C 72.066406 137.992188 35.296875 174.773438 35.296875 220.144531 L 35.296875 404.992188 L 774.378906 404.992188 L 774.378906 220.144531 C 774.378906 174.773438 737.609375 137.992188 692.261719 137.992188 Z M 692.261719 137.992188 " fill-opacity="1" fill-rule="nonzero"/></g><g clip-path="url(#e26d7c86ac)"><path fill="#eeeeee" d="M 62.25 650.324219 L 426.003906 406.304688 L 62.601562 159.371094 C 45.949219 174.40625 35.296875 195.949219 35.296875 220.144531 L 35.296875 589.835938 C 35.296875 613.886719 45.808594 635.308594 62.25 650.324219 Z M 62.25 650.324219 " fill-opacity="1" fill-rule="nonzero"/></g><path fill="#fcd116" d="M 365.214844 374.59375 L 366.097656 398.273438 L 388.988281 404.3125 L 366.753906 412.445312 L 368.089844 436.105469 L 353.472656 417.457031 L 331.402344 426.023438 L 344.601562 406.367188 L 329.617188 388.027344 L 352.402344 394.515625 Z M 68.207031 199.238281 L 85.984375 214.90625 L 106.105469 202.441406 L 96.703125 224.191406 L 114.769531 239.492188 L 91.199219 237.273438 L 82.226562 259.167969 L 77.074219 236.0625 L 53.445312 234.296875 L 73.832031 222.261719 Z M 77.054688 552.765625 L 88.839844 573.304688 L 111.914062 568.023438 L 96.023438 585.566406 L 108.21875 605.878906 L 86.621094 596.183594 L 71.078125 614.074219 L 73.605469 590.496094 L 51.824219 581.25 L 74.980469 576.363281 Z M 240.597656 404.992188 C 240.597656 439.023438 213.023438 466.605469 179.007812 466.605469 C 144.988281 466.605469 117.417969 439.003906 117.417969 404.992188 C 117.417969 370.957031 144.988281 343.375 179.007812 343.375 C 213.023438 343.375 240.597656 370.957031 240.597656 404.992188 Z M 240.597656 404.992188 " fill-opacity="1" fill-rule="nonzero"/><path fill="#fcd116" d="M 191.222656 294.023438 L 188 348.40625 L 182.988281 347.667969 L 184.734375 284.53125 L 179.007812 280.792969 L 173.277344 284.53125 L 175.023438 347.667969 L 170.015625 348.40625 L 166.792969 294.023438 L 159.542969 298.5 L 166.296875 353.890625 L 191.714844 353.890625 L 198.46875 298.5 Z M 166.792969 515.960938 L 170.015625 461.574219 L 175.023438 462.3125 L 173.257812 525.449219 L 179.007812 529.1875 L 184.734375 525.449219 L 182.988281 462.3125 L 188 461.574219 L 191.222656 515.960938 L 198.46875 511.484375 L 191.714844 456.070312 L 166.296875 456.070312 L 159.542969 511.484375 Z M 91.917969 474.800781 L 132.671875 438.675781 L 135.667969 442.699219 L 89.824219 486.097656 L 91.21875 492.8125 L 97.933594 494.230469 L 141.3125 448.328125 L 145.359375 451.347656 L 109.203125 492.113281 L 117.5 494.046875 L 151.886719 450.113281 L 133.902344 432.121094 L 89.988281 466.523438 Z M 266.09375 335.160156 L 225.34375 371.328125 L 222.347656 367.28125 L 268.191406 323.882812 L 266.792969 317.167969 L 260.082031 315.75 L 216.699219 361.632812 L 212.65625 358.636719 L 248.808594 317.867188 L 240.515625 315.9375 L 206.125 359.867188 L 224.109375 377.859375 L 268.023438 343.457031 Z M 68.082031 392.769531 L 122.464844 395.996094 L 121.707031 401.007812 L 58.597656 399.238281 L 54.859375 404.992188 L 58.597656 410.722656 L 121.707031 408.976562 L 122.464844 413.988281 L 68.082031 417.210938 L 72.558594 424.460938 L 127.925781 417.703125 L 127.925781 392.257812 L 72.558594 385.519531 Z M 289.929688 417.210938 L 235.546875 413.988281 L 236.304688 408.976562 L 299.414062 410.722656 L 303.152344 404.992188 L 299.414062 399.238281 L 236.304688 401.007812 L 235.546875 395.996094 L 289.929688 392.769531 L 285.457031 385.519531 L 230.066406 392.257812 L 230.066406 417.703125 L 285.457031 424.460938 Z M 109.203125 317.867188 L 145.359375 358.636719 L 141.3125 361.632812 L 97.933594 315.75 L 91.21875 317.167969 L 89.824219 323.882812 L 135.667969 367.28125 L 132.671875 371.328125 L 91.917969 335.160156 L 89.988281 343.457031 L 133.902344 377.859375 L 151.886719 359.867188 L 117.5 315.9375 Z M 248.808594 492.113281 L 212.65625 451.347656 L 216.699219 448.328125 L 260.078125 494.230469 L 266.792969 492.8125 L 268.191406 486.097656 L 222.34375 442.699219 L 225.34375 438.675781 L 266.09375 474.800781 L 268.023438 466.523438 L 224.109375 432.121094 L 206.125 450.113281 L 240.515625 494.046875 Z M 248.808594 492.113281 " fill-opacity="1" fill-rule="nonzero"/></svg>